<svg width="25" height="15" viewBox="0 0 25 15" fill="none" xmlns="http://www.w3.org/2000/svg">
<path d="M0.542969 14.9906C0.542969 9.99844 0.542969 5.03906 0.542969 0.046875C0.632031 0.046875 0.716406 0.046875 0.796094 0.046875C3.02266 0.046875 5.24922 0.046875 7.4711 0.046875C8.18829 0.046875 8.88673 0.140625 9.56642 0.365625C11.043 0.857813 11.9664 2.06719 12.0086 3.62344C12.0227 4.06406 11.9899 4.51406 11.9055 4.95C11.7414 5.775 11.2492 6.38438 10.532 6.81094C10.4524 6.85781 10.3727 6.90469 10.2742 6.96563C10.443 7.04531 10.5883 7.11563 10.7336 7.19063C11.6852 7.70625 12.2242 8.52188 12.4117 9.57188C12.618 10.7109 12.4727 11.7938 11.882 12.8063C11.1977 13.9828 10.1664 14.6625 8.82579 14.85C8.23048 14.9344 7.63048 14.9813 7.03048 14.9859C4.96797 15 2.90547 14.9906 0.847657 14.9906C0.753907 14.9906 0.664844 14.9906 0.542969 14.9906ZM3.9086 12.3656C5.16016 12.3656 6.38829 12.3891 7.61173 12.3563C8.20704 12.3375 8.74142 12.1078 9.08829 11.5781C9.43985 11.0344 9.47267 10.4297 9.37892 9.81563C9.30392 9.32344 9.0461 8.92031 8.58204 8.72813C8.23048 8.58281 7.84142 8.46094 7.46173 8.44688C6.32266 8.40469 5.1836 8.42344 4.04454 8.41875C4.00235 8.41875 3.95547 8.4375 3.91329 8.44688C3.9086 9.75938 3.9086 11.0625 3.9086 12.3656ZM3.91329 5.92969C3.9836 5.93438 4.03516 5.94375 4.09141 5.94375C5.09922 5.94375 6.10235 5.95781 7.11016 5.93438C7.45704 5.925 7.8086 5.85469 8.14142 5.75625C8.60548 5.61563 8.96642 5.32031 9.05548 4.81875C9.11173 4.5 9.1211 4.16719 9.07892 3.84844C9.0086 3.28594 8.66642 2.93438 8.1086 2.81719C7.81329 2.75625 7.5086 2.68594 7.2086 2.67656C6.18673 2.64844 5.16485 2.65313 4.14297 2.63438C3.9461 2.62969 3.89454 2.69063 3.89454 2.88281C3.90391 3.82031 3.89922 4.75313 3.89922 5.69063C3.89922 5.77031 3.9086 5.84531 3.91329 5.92969Z" fill="#3B486A"/>
<path d="M16.4102 9.96552C16.3961 11.4936 17.2727 12.5015 18.6883 12.6046C19.3493 12.6515 19.9914 12.5858 20.5118 12.1077C20.6946 11.939 20.8258 11.7233 20.9852 11.5358C21.0368 11.4796 21.1118 11.3999 21.1727 11.3999C22.0539 11.3905 22.9352 11.3952 23.8399 11.3952C23.8071 11.8218 23.6524 12.1827 23.4461 12.5202C22.5883 13.9218 21.318 14.6765 19.6961 14.8546C18.6368 14.9718 17.6055 14.8593 16.6211 14.4327C14.9289 13.7061 13.9493 12.4405 13.7149 10.603C13.5508 9.29989 13.5743 8.01083 14.0102 6.76395C14.5399 5.2452 15.5993 4.24676 17.1321 3.77801C18.4118 3.38895 19.6961 3.44051 20.9477 3.90926C22.5039 4.4952 23.3571 5.69989 23.7836 7.25145C24.0133 8.08114 23.9993 8.93426 24.0039 9.78739C24.0039 9.96551 23.9055 9.96552 23.7789 9.96552C22.7711 9.96552 21.7633 9.96552 20.7555 9.96552C19.4055 9.96552 18.0508 9.96552 16.7008 9.96552C16.6118 9.96552 16.518 9.96552 16.4102 9.96552ZM21.1399 8.09989C21.0649 6.66083 20.118 5.82176 18.6696 5.84989C17.193 5.87801 16.5461 7.10614 16.4805 8.09989C18.0274 8.09989 19.5789 8.09989 21.1399 8.09989Z" fill="#3B486A"/>
<path d="M15.8613 2.15635C15.8613 1.66885 15.8613 1.19072 15.8613 0.693848C17.816 0.693848 19.752 0.693848 21.7113 0.693848C21.7113 1.18135 21.7113 1.66416 21.7113 2.15635C19.7566 2.15635 17.816 2.15635 15.8613 2.15635Z" fill="#3B486A"/>
</svg>
