<svg width="22" height="20" viewBox="0 0 22 20" fill="none" xmlns="http://www.w3.org/2000/svg">
<mask id="path-1-inside-1_2_716" fill="white">
<path d="M3.39053 19.142H1.92353L2.96088 18.1025C3.52021 17.542 3.86949 16.813 3.96339 16.0221C2.50384 15.0623 1.43655 13.7995 0.865235 12.3513C0.294321 10.9042 0.222577 9.31117 0.657781 7.74442C1.17996 5.86448 2.40471 4.15098 4.10635 2.91951C5.95549 1.58136 8.25746 0.874023 10.7634 0.874023C13.9203 0.874023 16.5812 1.78292 18.4583 3.50238C20.1494 5.05147 21.0807 7.14097 21.0807 9.38603C21.0807 10.4767 20.8591 11.538 20.422 12.5404C19.9697 13.5777 19.3074 14.5013 18.4535 15.2855C16.5738 17.0117 13.9146 17.9242 10.7634 17.9242C9.59357 17.9242 8.37287 17.7677 7.28302 17.4805C6.25142 18.541 4.85353 19.142 3.39053 19.142ZM10.7634 2.09189C5.73856 2.09189 2.65527 5.09487 1.82857 8.07101C1.04737 10.8835 2.19896 13.541 4.90911 15.1799L5.21192 15.363L5.20261 15.7173C5.18413 16.4186 5.01731 17.094 4.71871 17.7045C5.44583 17.458 6.10562 17.0111 6.62229 16.3994L6.87921 16.0952L7.26021 16.2094C8.3294 16.5298 9.57352 16.7063 10.7634 16.7063C17.0171 16.7063 19.8654 12.9117 19.8654 9.38603C19.8654 7.48713 19.0745 5.71683 17.6383 4.40129C15.989 2.89049 13.6117 2.09189 10.7634 2.09189Z"/>
</mask>
<path d="M1.92353 19.142L0.507831 17.7293L-2.89773 21.142H1.92353V19.142ZM2.96088 18.1025L1.54518 16.6898L1.54518 16.6898L2.96088 18.1025ZM3.96339 16.0221L5.94944 16.258L6.0952 15.0304L5.06231 14.3511L3.96339 16.0221ZM0.865235 12.3513L2.7257 11.6173L2.72568 11.6173L0.865235 12.3513ZM0.657781 7.74442L2.58482 8.27971L2.58482 8.27968L0.657781 7.74442ZM4.10635 2.91951L2.93384 1.29926L2.9338 1.29929L4.10635 2.91951ZM18.4583 3.50238L19.8093 2.02762L19.8092 2.02759L18.4583 3.50238ZM20.422 12.5404L22.2553 13.3398L22.2553 13.3398L20.422 12.5404ZM18.4535 15.2855L17.1007 13.8124L17.1007 13.8124L18.4535 15.2855ZM7.28302 17.4805L7.79262 15.5465L6.66356 15.249L5.84942 16.0859L7.28302 17.4805ZM1.82857 8.07101L-0.0984647 7.53573L-0.0984694 7.53575L1.82857 8.07101ZM4.90911 15.1799L5.94406 13.4685L5.94405 13.4685L4.90911 15.1799ZM5.21192 15.363L7.21123 15.4156L7.2418 14.2533L6.24688 13.6516L5.21192 15.363ZM5.20261 15.7173L7.20191 15.77L7.20191 15.7699L5.20261 15.7173ZM4.71871 17.7045L2.92206 16.8259L0.811633 21.1411L5.36092 19.5986L4.71871 17.7045ZM6.62229 16.3994L8.1502 17.6899L8.15023 17.6899L6.62229 16.3994ZM6.87921 16.0952L7.45343 14.1794L6.19737 13.8029L5.35128 14.8047L6.87921 16.0952ZM7.26021 16.2094L6.68599 18.1252L6.686 18.1252L7.26021 16.2094ZM17.6383 4.40129L16.2874 5.87607L16.2874 5.87609L17.6383 4.40129ZM3.39053 17.142H1.92353V21.142H3.39053V17.142ZM3.33923 20.5548L4.37658 19.5152L1.54518 16.6898L0.507831 17.7293L3.33923 20.5548ZM4.37658 19.5152C5.25809 18.6319 5.80362 17.4861 5.94944 16.258L1.97734 15.7863C1.93536 16.1399 1.78233 16.4521 1.54518 16.6898L4.37658 19.5152ZM5.06231 14.3511C3.90197 13.588 3.1271 12.6348 2.7257 11.6173L-0.995226 13.0852C-0.253992 14.9642 1.10571 16.5366 2.86447 17.6932L5.06231 14.3511ZM2.72568 11.6173C2.32196 10.594 2.26038 9.44768 2.58482 8.27971L-1.26926 7.20914C-1.81523 9.17465 -1.73331 11.2144 -0.995214 13.0853L2.72568 11.6173ZM2.58482 8.27968C2.97612 6.87095 3.91432 5.52728 5.2789 4.53974L2.9338 1.29929C0.895106 2.77468 -0.616197 4.85801 -1.26926 7.20916L2.58482 8.27968ZM5.27887 4.53976C6.75339 3.47271 8.6352 2.87402 10.7634 2.87402V-1.12598C7.87971 -1.12598 5.15759 -0.309985 2.93384 1.29926L5.27887 4.53976ZM10.7634 2.87402C13.5457 2.87402 15.6822 3.67168 17.1074 4.97718L19.8092 2.02759C17.4802 -0.105847 14.2949 -1.12598 10.7634 -1.12598V2.87402ZM17.1074 4.97715C18.395 6.15668 19.0807 7.71541 19.0807 9.38603H23.0807C23.0807 6.56653 21.9038 3.94627 19.8093 2.02762L17.1074 4.97715ZM19.0807 9.38603C19.0807 10.2009 18.9161 10.9901 18.5887 11.7411L22.2553 13.3398C22.802 12.0859 23.0807 10.7526 23.0807 9.38603H19.0807ZM18.5887 11.741C18.2506 12.5163 17.7544 13.2121 17.1007 13.8124L19.8063 16.7585C20.8604 15.7905 21.6888 14.639 22.2553 13.3398L18.5887 11.741ZM17.1007 13.8124C15.6717 15.1248 13.5367 15.9242 10.7634 15.9242V19.9242C14.2925 19.9242 17.476 18.8986 19.8063 16.7585L17.1007 13.8124ZM10.7634 15.9242C9.76058 15.9242 8.71139 15.7886 7.79262 15.5465L6.77342 19.4145C8.03435 19.7467 9.42656 19.9242 10.7634 19.9242V15.9242ZM5.84942 16.0859C5.18514 16.7688 4.30045 17.142 3.39053 17.142V21.142C5.4066 21.142 7.3177 20.3131 8.71662 18.8751L5.84942 16.0859ZM10.7634 0.0918912C4.86743 0.0918912 0.975912 3.66793 -0.0984647 7.53573L3.75561 8.60629C4.33463 6.52181 6.60968 4.09189 10.7634 4.09189V0.0918912ZM-0.0984694 7.53575C-1.14685 11.3101 0.486882 14.8429 3.87416 16.8913L5.94405 13.4685C3.91104 12.2391 3.24159 10.4569 3.75562 8.60628L-0.0984694 7.53575ZM3.87415 16.8913L4.17697 17.0744L6.24688 13.6516L5.94406 13.4685L3.87415 16.8913ZM3.21261 15.3105L3.2033 15.6647L7.20191 15.7699L7.21123 15.4156L3.21261 15.3105ZM3.2033 15.6646C3.19231 16.0817 3.09358 16.4752 2.92206 16.8259L6.51535 18.5832C6.94104 17.7128 7.17595 16.7554 7.20191 15.77L3.2033 15.6646ZM5.36092 19.5986C6.43642 19.234 7.40127 18.5766 8.1502 17.6899L5.09439 15.1088C4.80998 15.4455 4.45524 15.682 4.0765 15.8105L5.36092 19.5986ZM8.15023 17.6899L8.40714 17.3857L5.35128 14.8047L5.09436 15.1088L8.15023 17.6899ZM6.30499 18.011L6.68599 18.1252L7.83443 14.2936L7.45343 14.1794L6.30499 18.011ZM6.686 18.1252C7.95341 18.505 9.39189 18.7063 10.7634 18.7063V14.7063C9.75515 14.7063 8.7054 14.5546 7.83442 14.2936L6.686 18.1252ZM10.7634 18.7063C14.3049 18.7063 17.0963 17.6235 19.0216 15.8328C20.9352 14.053 21.8654 11.6865 21.8654 9.38603H17.8654C17.8654 10.6112 17.3715 11.9049 16.2974 12.9038C15.2352 13.8918 13.4757 14.7063 10.7634 14.7063V18.7063ZM21.8654 9.38603C21.8654 6.91014 20.8269 4.60985 18.9892 2.9265L16.2874 5.87609C17.322 6.82382 17.8654 8.06412 17.8654 9.38603H21.8654ZM18.9892 2.92652C16.8785 0.993041 13.9702 0.0918912 10.7634 0.0918912V4.09189C13.2532 4.09189 15.0995 4.78793 16.2874 5.87607L18.9892 2.92652Z" fill="#D1D9E0" mask="url(#path-1-inside-1_2_716)"/>
<path d="M20.0807 9.3991C20.0807 13.3822 16.0841 16.9242 10.7288 16.9242C5.37353 16.9242 1.37695 13.3822 1.37695 9.3991C1.37695 5.41598 5.37353 1.87402 10.7288 1.87402C16.0841 1.87402 20.0807 5.41598 20.0807 9.3991Z" stroke="#D1D9E0" stroke-width="2"/>
<mask id="path-4-inside-2_2_716" fill="white">
<path d="M4.19928 18.476L4.57218 15.4733L6.97395 17.2691L4.19928 18.476Z"/>
</mask>
<path d="M4.19928 18.476L2.21452 18.2295L1.78251 21.7082L4.99701 20.31L4.19928 18.476ZM4.57218 15.4733L5.76984 13.8715L3.01184 11.8093L2.58743 15.2268L4.57218 15.4733ZM6.97395 17.2691L7.77168 19.1031L10.9296 17.7296L8.17161 15.6674L6.97395 17.2691ZM6.18403 18.7225L6.55694 15.7198L2.58743 15.2268L2.21452 18.2295L6.18403 18.7225ZM3.37453 17.075L5.77629 18.8709L8.17161 15.6674L5.76984 13.8715L3.37453 17.075ZM6.17622 15.4351L3.40155 16.642L4.99701 20.31L7.77168 19.1031L6.17622 15.4351Z" fill="#D1D9E0" mask="url(#path-4-inside-2_2_716)"/>
</svg>
