<svg width="47" height="47" viewBox="0 0 47 47" fill="none" xmlns="http://www.w3.org/2000/svg">
<circle cx="23.2803" cy="23.6838" r="22.7471" fill="#FF4343"/>
<path d="M17.1539 32.9064C19.2252 30.8303 21.3221 28.7286 23.4361 26.6099C25.5926 28.7712 27.6981 30.8898 29.795 33C30.886 31.8939 31.9089 30.8558 32.9574 29.7837C30.8946 27.7331 28.7721 25.6314 26.6411 23.5128C28.7977 21.3686 30.9116 19.2754 33 17.1993C31.926 16.1357 30.886 15.1146 29.8376 14.0766C27.7918 16.1272 25.6864 18.2459 23.5384 20.3986C21.3733 18.2203 19.2593 16.1017 17.1709 14C16.114 15.0636 15.0911 16.0846 14.0767 17.1057C16.1566 19.1733 18.279 21.275 20.4186 23.4021C18.2279 25.5889 16.1054 27.6906 14.0085 29.7837C15.0825 30.8473 16.1054 31.8598 17.1539 32.9064Z" fill="white"/>
</svg>
