<svg width="294" height="45" viewBox="0 0 294 45" fill="none" xmlns="http://www.w3.org/2000/svg">
<rect x="0.206055" y="0.803711" width="293.764" height="43.5435" fill="#F9E955"/>
<g clip-path="url(#clip0_2_559)">
<path d="M208.233 16.0227L201.154 29.1281H205.072L206.14 27.1601H215.266L216.335 29.1281H220.208L213.308 16.0227H208.233ZM207.476 24.5658L210.458 18.6617H210.904L213.842 24.5658H207.476Z" fill="black"/>
<path d="M235.745 16.0227V20.093H226.174V16.0227H222.301V29.1281H226.174V22.6425H235.745V29.1281H239.618V16.0227H235.745Z" fill="black"/>
<path d="M51.7539 16.0227V20.093H42.1826V16.0227H38.3096V29.1281H42.1826V22.6425H51.7539V29.1281H55.6269V16.0227H51.7539Z" fill="black"/>
<path d="M176.981 29.5754H172.93C169.28 29.5754 166.297 26.4444 166.297 22.5531C166.297 18.6617 169.28 15.5754 172.93 15.5754H177.026C180.676 15.5754 183.659 18.7064 183.659 22.5978C183.614 26.4444 180.632 29.5754 176.981 29.5754ZM172.93 18.7064C170.882 18.7064 169.235 20.4508 169.235 22.5978C169.235 24.7448 170.882 26.4892 172.93 26.4892H176.981C179.029 26.4892 180.676 24.7448 180.676 22.5978C180.676 20.4508 179.029 18.7064 176.981 18.7064H172.93Z" fill="black"/>
<path d="M30.4741 16.0227L21.8822 27.0259V16.0227H18.5879V29.1281H24.4197L32.5664 18.7064V29.1281H35.8607V16.0227H30.4741Z" fill="black"/>
<path d="M253.864 16.0227L245.272 27.0259V16.0227H241.978V29.1281H247.809L255.956 18.7064V29.1281H259.25V16.0227H253.864Z" fill="black"/>
<path d="M139.988 16.0227L131.396 27.0259V16.0227H128.102V29.1281H133.889L142.08 18.7064V29.1281H145.33V16.0227H139.988Z" fill="black"/>
<path d="M88.5251 18.617V16.0227H74.7246V29.1281H88.5251V26.5339H78.5976V23.0898H87.1895V20.5403H78.5976V18.617H88.5251Z" fill="black"/>
<path d="M275.588 18.617V16.0227H261.787V29.1281H275.588V26.5339H265.66V23.0898H274.252V20.5403H265.66V18.617H275.588Z" fill="black"/>
<path d="M72.4095 23.6713C72.1424 23.1793 71.7863 22.7767 71.3411 22.4636C71.1185 22.2847 70.8069 22.1058 70.5398 21.9716C70.8514 21.7032 71.1185 21.3901 71.2966 21.0323C71.5192 20.585 71.6527 20.1378 71.6527 19.601C71.6527 19.109 71.5192 18.617 71.2966 18.1697C71.074 17.7224 70.7179 17.3646 70.3172 17.0068C69.9165 16.6937 69.3823 16.4253 68.8036 16.2016C68.2249 16.0227 67.5571 15.8885 66.8893 15.8885H58.2529V21.2112V23.1346V29.0834H67.6461C68.4029 29.0834 69.0707 28.994 69.7385 28.7703C70.3617 28.5467 70.9404 28.2783 71.3856 27.9205C71.8308 27.5627 72.1869 27.1601 72.454 26.6681C72.7211 26.1761 72.8547 25.6841 72.8547 25.1473C72.8102 24.6553 72.6766 24.1633 72.4095 23.6713ZM61.2801 18.1697H66.6222C67.3345 18.1697 67.8242 18.3039 68.1358 18.617C68.4029 18.8854 68.581 19.2432 68.581 19.6457C68.581 20.0483 68.4475 20.3614 68.1358 20.6298C67.8242 20.8981 67.3345 21.0323 66.6222 21.0323H61.2801V18.1697ZM69.0262 26.355C68.7146 26.6681 68.1804 26.8023 67.379 26.8023H61.5472V23.6713H67.3345C68.0913 23.6713 68.67 23.8055 68.9817 24.1186C69.2933 24.387 69.4714 24.7895 69.4714 25.1921C69.4714 25.6841 69.3378 26.0419 69.0262 26.355Z" fill="black"/>
<path d="M200.041 23.6713C199.774 23.1793 199.418 22.7767 198.973 22.4636C198.75 22.2847 198.439 22.1058 198.172 21.9716C198.483 21.7032 198.75 21.3901 198.928 21.0323C199.151 20.585 199.285 20.1378 199.285 19.601C199.285 19.109 199.151 18.617 198.928 18.1697C198.706 17.7224 198.35 17.3646 197.949 17.0068C197.548 16.6937 197.014 16.4253 196.435 16.2016C195.857 16.0227 195.189 15.8885 194.521 15.8885H185.885V21.2112V23.1346V29.0834H195.278C196.035 29.0834 196.703 28.994 197.37 28.7703C197.994 28.5467 198.572 28.2783 199.017 27.9205C199.463 27.5627 199.819 27.1601 200.086 26.6681C200.353 26.1761 200.487 25.6841 200.487 25.1473C200.398 24.6553 200.264 24.1633 200.041 23.6713ZM188.912 18.1697H194.254C194.966 18.1697 195.456 18.3039 195.768 18.617C196.035 18.8854 196.213 19.2432 196.213 19.6457C196.213 20.0483 196.079 20.3614 195.768 20.6298C195.456 20.8981 194.966 21.0323 194.254 21.0323H188.912V18.1697ZM196.614 26.355C196.302 26.6681 195.768 26.8023 194.966 26.8023H189.135V23.6713H194.922C195.679 23.6713 196.257 23.8055 196.569 24.1186C196.881 24.387 197.059 24.7895 197.059 25.1921C197.103 25.6841 196.925 26.0419 196.614 26.355Z" fill="black"/>
<path d="M164.249 20.9428C164.249 20.2272 164.116 19.5563 163.804 18.9748C163.537 18.3933 163.136 17.8566 162.647 17.4093C162.157 16.962 161.534 16.6489 160.821 16.3805C160.109 16.1569 159.352 16.0227 158.551 16.0227H148.134V20.9428V25.9077V29.0834H151.784V25.9077H158.551C159.397 25.9077 160.154 25.7735 160.866 25.5051C161.578 25.2368 162.157 24.8789 162.691 24.4317C163.181 23.9844 163.581 23.4476 163.848 22.8214C164.116 22.2847 164.249 21.6138 164.249 20.9428ZM160.064 22.3741C159.708 22.7767 159.13 22.9556 158.284 22.9556H151.829V18.9748H158.239C159.085 18.9748 159.708 19.1537 160.064 19.5115C160.421 19.8694 160.599 20.3614 160.599 20.8981C160.554 21.4796 160.376 21.9716 160.064 22.3741Z" fill="black"/>
<path d="M125.741 16.0674H106.287V18.8406H114.345V29.1281H117.684V18.8406H125.741V16.0674Z" fill="black"/>
<path d="M99.4319 26.355C96.5828 26.355 95.9596 26.0866 95.6034 25.9525C94.2234 25.4604 93.244 24.1186 93.1995 22.5978C93.244 21.0323 94.2234 19.7352 95.6034 19.2432C96.0041 19.109 96.4938 18.8406 99.4319 18.8406C101.079 18.8406 102.326 19.109 102.726 19.2879L104.017 16.8279C103.171 16.4253 100.946 15.9333 99.4319 15.9333C96.7164 15.9333 95.8705 16.1122 95.4254 16.2017C92.4872 16.8279 90.2613 19.4221 90.2168 22.5531V22.5978V22.6426C90.2613 25.7735 92.4872 28.3678 95.4254 28.994C95.8705 29.0834 96.3602 29.2624 99.4319 29.2624C100.946 29.2624 103.171 28.7703 104.017 28.3678L102.726 25.9077C102.326 26.0866 101.079 26.355 99.4319 26.355Z" fill="black"/>
</g>
<defs>
<clipPath id="clip0_2_559">
<rect width="257" height="14" fill="white" transform="translate(18.5879 15.5754)"/>
</clipPath>
</defs>
</svg>
