<svg width="295" height="46" viewBox="0 0 295 46" fill="none" xmlns="http://www.w3.org/2000/svg">
<rect x="0.709961" y="0.803711" width="294.053" height="45" fill="url(#paint0_linear_2_1226)"/>
<g clip-path="url(#clip0_2_1226)">
<path d="M205.75 22.9376L209.33 18.3037H205.837L202.99 21.8447H200.359V18.3037H197.34V21.8447H194.709L191.862 18.3037H188.368L191.948 22.9376L187.333 31.1125H190.913L194.45 25.2545H197.34V31.1125H200.359V25.2545H203.249L206.786 31.1125H210.366L205.75 22.9376Z" fill="white"/>
<path d="M115.173 23.0688C115.173 22.3693 115.044 21.7136 114.742 21.1453C114.483 20.5769 114.095 20.0524 113.621 19.6152C113.146 19.178 112.542 18.872 111.852 18.6097C111.162 18.3912 110.429 18.26 109.652 18.26H99.5596V23.0688V27.9212V31.025H103.096V27.9212H109.652C110.472 27.9212 111.205 27.7901 111.895 27.5278C112.585 27.2655 113.146 26.9157 113.664 26.4786C114.138 26.0414 114.526 25.5168 114.785 24.9048C115.044 24.4239 115.173 23.7682 115.173 23.0688ZM111.119 24.5114C110.774 24.9048 110.213 25.0797 109.394 25.0797H103.14V21.189H109.351C110.17 21.189 110.774 21.3638 111.119 21.7136C111.464 22.0633 111.637 22.5442 111.637 23.0688C111.637 23.6371 111.464 24.1179 111.119 24.5114Z" fill="white"/>
<path d="M159.772 18.3037L152.914 31.1125H156.71L161.886 21.0141H165.552V31.1125H168.7V18.3474V18.3037H159.772Z" fill="white"/>
<path d="M239.696 18.3037V22.2819H230.422V18.3037H226.67V31.1125H230.422V24.7299H239.696V31.1125H243.448V18.3037H239.696Z" fill="white"/>
<path d="M180.475 31.9868H176.55C173.013 31.9868 170.123 28.9267 170.123 25.1234C170.123 21.3201 172.97 18.3037 176.507 18.3037H180.475C184.012 18.3037 186.901 21.3638 186.901 25.1671C186.901 28.9267 184.012 31.9868 180.475 31.9868ZM176.507 21.3638C174.523 21.3638 172.927 23.0687 172.927 25.1671C172.927 27.2655 174.523 28.9704 176.507 28.9704H180.432C182.416 28.9704 184.012 27.2655 184.012 25.1671C184.012 23.0687 182.416 21.3638 180.432 21.3638H176.507Z" fill="white"/>
<path d="M256.776 18.3037L248.495 29.0578V18.3037H245.303V31.1125H250.91L258.803 20.9267V31.1125H261.995V18.3037H256.776Z" fill="white"/>
<path d="M277.091 20.7955V18.3037H263.72V31.1125H277.091V28.5769H267.472V25.1671H275.797V22.719H267.472V20.7955H277.091Z" fill="white"/>
<path d="M225.03 20.7955V18.3037H211.659V31.1125H225.03V28.5769H215.412V25.1671H223.736V22.719H215.412V20.7955H225.03Z" fill="white"/>
<path d="M62.1209 20.7955V18.3037H48.75V31.1125H62.1209V28.5769H52.5025V25.1671H60.827V22.719H52.5025V20.7955H62.1209Z" fill="white"/>
<path d="M130.398 20.7955V18.3037H117.027V31.1125H130.398V28.5769H120.78V25.1671H129.104V22.719H120.78V20.7955H130.398Z" fill="white"/>
<path d="M148.557 28.4021V18.3474V18.3037H139.585L134.194 28.4021H132.253V31.1125H151.102V28.4021H148.557ZM137.946 28.4021L141.742 21.0141H145.365V28.4021H137.946Z" fill="white"/>
<path d="M82.7812 18.3037V31.0687H86.0162V21.0141H94.5563V31.0687H97.7481V18.3037H82.7812Z" fill="white"/>
<path d="M32.0146 18.3037V31.0687H35.2496V21.0141H43.7897V31.0687H46.9815V18.3037H32.0146Z" fill="white"/>
<path d="M26.0192 28.4895C23.2587 28.4895 22.6549 28.2272 22.3098 28.0961C20.9727 27.6152 20.0238 26.3037 19.9807 24.8174C20.0238 23.2873 20.9727 22.0196 22.3098 21.5387C22.698 21.4075 23.1724 21.1452 26.0192 21.1452C27.615 21.1452 28.8227 21.4075 29.2109 21.5824L30.5049 19.178C29.6854 18.7846 27.5288 18.3037 26.0623 18.3037C23.4312 18.3037 22.6117 18.4786 22.1804 18.566C19.2906 19.2217 17.134 21.7573 17.0908 24.7737V24.8174V24.8611C17.134 27.9212 19.2906 30.4567 22.1373 31.0687C22.5686 31.1562 23.043 31.331 26.0192 31.331C27.4856 31.331 29.6422 30.8502 30.4618 30.4567L29.2109 28.0523C28.8227 28.2272 27.615 28.4895 26.0192 28.4895Z" fill="white"/>
<path d="M78.3819 28.4895V18.4349H75.147V28.4895H66.6068V18.4349H63.415V31.1999H76.8291L75.3195 34.3037H78.5975L81.4011 28.4895H78.3819Z" fill="white"/>
</g>
<defs>
<linearGradient id="paint0_linear_2_1226" x1="0.709963" y1="23.3037" x2="294.763" y2="23.3037" gradientUnits="userSpaceOnUse">
<stop stop-color="#34D0D0"/>
<stop offset="1" stop-color="#C5EF1E"/>
</linearGradient>
<clipPath id="clip0_2_1226">
<rect width="260" height="16" fill="white" transform="translate(17.0908 18.3037)"/>
</clipPath>
</defs>
</svg>
