<svg width="22" height="23" viewBox="0 0 22 23" fill="none" xmlns="http://www.w3.org/2000/svg">
<path fill-rule="evenodd" clip-rule="evenodd" d="M17.8612 4.98587C16.0908 3.2155 13.6449 2.12047 10.9436 2.12047C10.6356 2.12047 10.3253 2.1357 10.0138 2.16524C9.73748 2.19145 9.4665 2.22867 9.20126 2.27627C8.11165 1.36457 6.75762 0.931607 5.41749 0.977973C4.04968 1.0253 2.69661 1.57033 1.65355 2.61342C0.610378 3.65637 0.0652839 5.00948 0.0180045 6.37738C-0.0283101 7.71742 0.404744 9.07144 1.31667 10.1611C1.26896 10.4261 1.23164 10.697 1.20538 10.9732C1.17576 11.2847 1.1605 11.5951 1.1605 11.9032C1.1605 14.6047 2.25559 17.0504 4.02593 18.8207C5.79637 20.5912 8.24224 21.6862 10.9436 21.6862C11.2518 21.6862 11.5622 21.671 11.8739 21.6414C12.1501 21.6152 12.4211 21.5779 12.6863 21.5301C13.7757 22.442 15.1296 22.875 16.4696 22.8287C17.8374 22.7814 19.1906 22.2364 20.2337 21.1933C21.2767 20.1503 21.8217 18.7971 21.869 17.4292C21.9153 16.0891 21.4824 14.7351 20.5706 13.6456C20.6183 13.3805 20.6556 13.1096 20.6818 12.8334C20.7114 12.5217 20.7267 12.2114 20.7267 11.9032C20.7267 9.20183 19.6316 6.75616 17.8612 4.98588L17.8612 4.98587Z" fill="#B0BBC4"/>
<path fill-rule="evenodd" clip-rule="evenodd" d="M15.6438 8.39968C15.6438 7.61618 15.0485 6.97485 14.1439 6.52461C13.2028 6.05625 11.9129 5.78857 10.6325 5.78857C8.36085 5.78857 5.70705 6.79414 5.70705 9.5143C5.70705 10.6405 6.09083 11.4087 6.72179 11.9582C7.33564 12.4928 8.17685 12.8065 9.12028 13.0396H9.12119L10.9622 13.489L10.9621 13.4894L11.1262 13.53C12.0338 13.7551 12.586 13.8921 12.586 14.4643C12.586 14.7079 12.4417 14.9273 12.1845 15.0877C11.9047 15.2621 11.4988 15.3673 10.9972 15.3673C9.78157 15.3673 9.20875 14.7848 8.71269 14.2804C8.27286 13.8332 7.88492 13.4387 7.2037 13.4387C6.7259 13.4387 6.36791 13.6013 6.11926 13.8585C5.83797 14.1494 5.70703 14.5555 5.70703 14.9788C5.70703 15.8408 6.34129 16.6127 7.35653 17.1623C8.33192 17.6902 9.66994 18.0183 11.1254 18.0183C12.4467 18.0183 13.8049 17.6578 14.7786 16.9049C15.6239 16.2513 16.1798 15.3088 16.1798 14.0575C16.1798 12.8735 15.6068 12.0795 14.7938 11.527C14.0102 10.9943 13.0092 10.6965 12.0987 10.4883L10.7919 10.1881H10.7901C10.3259 10.0848 9.92412 9.99223 9.65241 9.84543C9.43193 9.72629 9.30083 9.56224 9.30083 9.29992C9.30083 9.07295 9.42223 8.90391 9.63827 8.78819C9.91695 8.63892 10.341 8.56821 10.8684 8.56821C11.8825 8.56821 12.3463 8.98579 12.755 9.35365C13.1364 9.69703 13.4773 10.0039 14.1041 10.0039L14.1042 10.003C14.5825 10.003 14.9684 9.81204 15.2355 9.51307C15.4993 9.21785 15.6438 8.81971 15.6438 8.39967L15.6438 8.39968Z" fill="#FFFFFE"/>
</svg>
