<svg width="138" height="37" viewBox="0 0 138 37" fill="none" xmlns="http://www.w3.org/2000/svg">
<rect x="0.780273" y="0.973633" width="137.219" height="35.5" fill="#FF4343"/>
<path d="M33.6234 10.7236H28.2935L23.9735 15.1468H19.9902V10.7236H15.3896V26.7236H19.9902V19.3516H24.4224L29.7522 26.7236H35.2504L28.2374 16.512L33.6234 10.7236Z" fill="white"/>
<path d="M58.3092 16.6759C58.3092 15.8021 58.1409 14.983 57.7481 14.2731C57.4115 13.5632 56.9066 12.9079 56.2894 12.3619C55.6723 11.8158 54.8868 11.4335 53.9892 11.1059C53.1476 10.8875 52.1938 10.7236 51.1279 10.7236H38.0557V16.7305V22.7919V26.669H42.6562V22.7919H51.184C52.2499 22.7919 53.2037 22.6281 54.1014 22.3004C54.999 21.9728 55.7284 21.5359 56.4016 20.9898C57.0188 20.4438 57.5237 19.7885 57.8603 19.024C58.1409 18.3687 58.3092 17.5496 58.3092 16.6759ZM53.0354 18.4779C52.5866 18.9694 51.8572 19.1878 50.7912 19.1878H42.6562V14.3277H50.7351C51.8011 14.3277 52.5866 14.5462 53.0354 14.983C53.4842 15.4199 53.7087 16.0206 53.7087 16.6759C53.7087 17.3857 53.4842 17.9864 53.0354 18.4779Z" fill="white"/>
<path d="M111.72 10.7236L102.8 26.7236H107.737L114.526 14.1093H119.238V26.7236H123.39V10.7782V10.7236H111.72Z" fill="white"/>
<path d="M100.33 17.222C99.7694 16.7305 99.0962 16.4029 98.2546 16.1299C97.4692 15.8568 96.5715 15.7476 95.6178 15.7476H87.9876V13.8909H99.9378V10.7783H83.8359V26.7237H95.6178C96.5715 26.7237 97.4131 26.5599 98.2546 26.2869C99.0401 26.0138 99.7694 25.577 100.33 25.0855C100.892 24.594 101.34 23.9933 101.677 23.338C102.014 22.6828 102.182 21.9183 102.182 21.1537C102.182 20.3892 102.014 19.6247 101.677 18.9694C101.34 18.3142 100.892 17.7135 100.33 17.222ZM97.357 22.7374C96.9643 23.1742 96.291 23.3927 95.2811 23.3927H87.9315V19.0241H95.225C96.1788 19.0241 96.9081 19.2425 97.3009 19.6247C97.6936 20.007 97.918 20.5531 97.918 21.1537C97.9741 21.7544 97.7497 22.3005 97.357 22.7374Z" fill="white"/>
<path d="M65.8834 10.7236L56.9629 26.7236H61.9L63.2465 24.3209H74.7478L76.0943 26.7236H80.9754L72.2793 10.7236H65.8834ZM64.9296 21.1537L68.6886 13.9455H69.2496L72.9525 21.1537H64.9296Z" fill="white"/>
</svg>
