<svg width="10" height="16" viewBox="0 0 10 16" fill="none" xmlns="http://www.w3.org/2000/svg">
<path d="M4.01786 11.393C2.81008 11.2671 1.72109 10.9697 0.788741 10.2406C0.673054 10.1499 0.553614 10.0625 0.448044 9.96118C0.0399573 9.56933 -0.00116145 9.12054 0.321751 8.65806C0.597996 8.26229 1.06172 8.15642 1.54373 8.38367C1.63706 8.42771 1.72599 8.48269 1.81116 8.54174C3.54875 9.7354 5.93575 9.76835 7.67987 8.59541C7.85267 8.46295 8.03737 8.35495 8.25145 8.29982C8.6677 8.19296 9.05588 8.34582 9.27925 8.70994C9.53445 9.12577 9.53119 9.53164 9.21676 9.85449C8.73443 10.3494 8.15437 10.7075 7.50985 10.9574C6.90041 11.1937 6.23288 11.3126 5.57221 11.3915C5.67191 11.5 5.7189 11.5534 5.78123 11.616C6.67834 12.5172 7.57936 13.4146 8.47352 14.3185C8.77816 14.6265 8.8418 15.0084 8.67406 15.3666C8.49066 15.7582 8.08012 16.0158 7.67758 15.9882C7.42255 15.9706 7.22365 15.8436 7.04694 15.6657C6.36995 14.9846 5.68023 14.3161 5.01695 13.6221C4.82392 13.4203 4.73107 13.4585 4.56072 13.6337C3.87966 14.3346 3.18749 15.0249 2.49125 15.7112C2.17862 16.0193 1.80659 16.0748 1.44403 15.8988C1.05862 15.712 0.813379 15.3187 0.832307 14.9234C0.845361 14.656 0.976875 14.4518 1.16044 14.2686C2.04824 13.3823 2.9336 12.4937 3.81928 11.6059C3.87786 11.5468 3.93252 11.4842 4.01786 11.393Z" fill="#B0B5D1"/>
<path d="M4.75294 8.30553C2.59829 8.29819 0.831497 6.51236 0.844061 4.35474C0.856462 2.1733 2.6244 0.415366 4.80026 0.421402C6.98053 0.427275 8.73052 2.2105 8.71959 4.41461C8.70849 6.56782 6.92946 8.31303 4.75294 8.30553ZM6.71114 4.35996C6.70738 3.28865 5.85401 2.43579 4.7846 2.43481C3.70621 2.43367 2.84517 3.30203 2.85349 4.38312C2.86148 5.45035 3.7222 6.29718 4.79455 6.29327C5.86364 6.28951 6.71473 5.4311 6.71114 4.35996Z" fill="#B0B5D1"/>
</svg>
