<svg width="18" height="18" viewBox="0 0 18 18" fill="none" xmlns="http://www.w3.org/2000/svg">
<path d="M13.2522 1.673C11.9063 0.894692 10.4363 0.505615 8.84252 0.505615C7.24855 0.505615 5.77861 0.894692 4.43269 1.673C3.08676 2.45133 2.02101 3.50725 1.23562 4.84059C0.450071 6.17425 0.057373 7.63064 0.057373 9.20977C0.057373 10.9702 0.541419 12.5683 1.51006 14.0037C2.47851 15.4395 3.74813 16.5009 5.31926 17.1883C5.28862 16.3799 5.33822 15.7114 5.46798 15.1825L6.60038 10.445C6.4097 10.0749 6.31444 9.61408 6.31444 9.06239C6.31444 8.42019 6.47839 7.88359 6.80628 7.45312C7.134 7.02229 7.53449 6.80686 8.00737 6.80686C8.38854 6.80686 8.68228 6.93139 8.88821 7.18103C9.09412 7.43027 9.19718 7.74393 9.19718 8.12162C9.19718 8.35598 9.15315 8.6413 9.06569 8.97738C8.97786 9.31365 8.86349 9.70269 8.72256 10.1448C8.58146 10.5867 8.48047 10.9398 8.41937 11.2044C8.31242 11.6652 8.40025 12.0599 8.68246 12.3887C8.96445 12.7174 9.33825 12.8816 9.80351 12.8816C10.6196 12.8816 11.2887 12.4322 11.8112 11.5331C12.3335 10.6339 12.5947 9.54212 12.5947 8.25751C12.5947 7.26784 12.2726 6.46299 11.6281 5.84346C10.9837 5.22407 10.0856 4.91411 8.93426 4.91411C7.64532 4.91411 6.60241 5.32417 5.8057 6.14368C5.00881 6.96359 4.61035 7.94406 4.61035 9.0846C4.61035 9.76467 4.80493 10.3353 5.19372 10.7962C5.32332 10.9473 5.36528 11.1096 5.31959 11.2833C5.30418 11.3287 5.27375 11.442 5.22806 11.6232C5.1824 11.8044 5.15176 11.9218 5.13653 11.9745C5.07543 12.2165 4.93063 12.2921 4.70169 12.2012C4.11444 11.9595 3.66825 11.5402 3.36339 10.9433C3.05834 10.3465 2.90589 9.6552 2.90589 8.86935C2.90589 8.36311 2.98777 7.85683 3.15172 7.35059C3.31566 6.84434 3.57096 6.3552 3.91818 5.88277C4.26501 5.41092 4.68073 4.99316 5.16514 4.63057C5.64937 4.26779 6.2385 3.97716 6.93252 3.75767C7.62639 3.53875 8.37389 3.42913 9.17463 3.42913C10.2575 3.42913 11.2299 3.66716 12.0915 4.14305C12.9532 4.61915 13.611 5.23504 14.0648 5.99053C14.5184 6.74605 14.7455 7.55436 14.7455 8.41601C14.7455 9.54937 14.547 10.5694 14.1506 11.4762C13.7541 12.3829 13.1935 13.095 12.469 13.6125C11.7443 14.1299 10.9207 14.3888 9.9981 14.3888C9.53284 14.3888 9.09815 14.2812 8.69399 14.0657C8.28958 13.8503 8.01129 13.5954 7.85884 13.3006C7.51571 14.6378 7.30981 15.4353 7.24112 15.6919C7.0961 16.2285 6.79867 16.8479 6.34878 17.5506C7.16479 17.7924 7.99603 17.9132 8.84252 17.9132C10.4363 17.9132 11.9063 17.5241 13.2522 16.746C14.5981 15.9677 15.6638 14.9118 16.4494 13.5781C17.2348 12.2445 17.6277 10.7883 17.6277 9.20901C17.6277 7.62974 17.2348 6.17356 16.4494 4.83987C15.664 3.50725 14.5981 2.45133 13.2522 1.673Z" fill="#B0B5D1"/>
</svg>
