<svg width="40" height="40" viewBox="0 0 40 40" fill="none" xmlns="http://www.w3.org/2000/svg">
<path d="M20.0055 2.05566C10.0613 2.05566 2 10.117 2 20.0612C2 30.0052 10.0613 38.0666 20.0055 38.0666C29.9496 38.0666 38.011 30.0052 38.011 20.0612C38.011 10.117 29.9496 2.05566 20.0055 2.05566Z" stroke="#D1D9E0" stroke-width="3" stroke-linecap="round" stroke-linejoin="round"/>
<path d="M12.8037 36.5684V23.6623L20.0059 11.0584L27.2081 23.6623V36.5684" stroke="#D1D9E0" stroke-width="3" stroke-linecap="round" stroke-linejoin="round"/>
<path d="M12.8037 23.6622C12.8037 23.6622 14.8325 25.4628 16.4048 25.4628C17.977 25.4628 20.0059 23.6622 20.0059 23.6622C20.0059 23.6622 22.0348 25.4628 23.607 25.4628C25.1792 25.4628 27.2081 23.6622 27.2081 23.6622" stroke="#D1D9E0" stroke-width="3" stroke-linecap="round" stroke-linejoin="round"/>
</svg>
