<svg width="38" height="35" viewBox="0 0 38 35" fill="none" xmlns="http://www.w3.org/2000/svg">
<path d="M0.662109 17.4587C0.662109 21.2579 3.74202 24.3378 7.54129 24.3378C10.8698 24.3378 13.6462 21.9739 14.2831 18.8333L18.0829 18.8333L18.0829 24.7917C18.0829 27.0698 19.9298 28.9167 22.2079 28.9167L23.7211 28.9167C24.3599 32.055 27.1352 34.4167 30.4621 34.4167C34.2613 34.4167 37.3413 31.3367 37.3413 27.5375C37.3413 23.7382 34.2613 20.6582 30.4621 20.6582C27.1322 20.6582 24.3549 23.0242 23.7195 26.1667L22.2079 26.1667C21.4485 26.1667 20.8329 25.551 20.8329 24.7917L20.8329 10.125C20.8329 9.36562 21.4485 8.74999 22.2079 8.74999L23.7211 8.74999C24.3599 11.8883 27.1352 14.25 30.4621 14.25C34.2613 14.25 37.3413 11.17 37.3413 7.37077C37.3413 3.57156 34.2613 0.491557 30.4621 0.491557C27.1322 0.491557 24.3549 2.85747 23.7195 5.99999L22.2079 5.99999C19.9298 5.99999 18.0829 7.84689 18.0829 10.125L18.0829 16.0833L14.283 16.0833C13.6458 12.943 10.8696 10.5795 7.54129 10.5795C3.74202 10.5795 0.662108 13.6593 0.662109 17.4587ZM7.54129 21.5878C5.26081 21.5878 3.41211 19.7392 3.41211 17.4587C3.41211 15.1782 5.26081 13.3295 7.54129 13.3295C9.82179 13.3295 11.6705 15.1782 11.6705 17.4587C11.6705 19.7392 9.82179 21.5878 7.54129 21.5878ZM30.4621 31.6667C28.1816 31.6667 26.3329 29.818 26.3329 27.5375C26.3329 25.257 28.1816 23.4083 30.4621 23.4083C32.7426 23.4083 34.5913 25.257 34.5913 27.5375C34.5913 29.818 32.7426 31.6667 30.4621 31.6667ZM26.3329 7.37077C26.3329 5.09029 28.1816 3.24155 30.4621 3.24155C32.7426 3.24155 34.5913 5.09029 34.5913 7.37077C34.5913 9.65126 32.7426 11.5 30.4621 11.5C28.1816 11.5 26.3329 9.65126 26.3329 7.37077Z" fill="#D1D9E0"/>
</svg>
