<svg width="23" height="23" viewBox="0 0 23 23" fill="none" xmlns="http://www.w3.org/2000/svg">
<path fill-rule="evenodd" clip-rule="evenodd" d="M18.039 4.501C16.2685 2.73064 13.8227 1.63561 11.1213 1.63561C10.8133 1.63561 10.5031 1.65084 10.1916 1.68038C9.91522 1.70659 9.64423 1.74381 9.379 1.79141C8.28939 0.879711 6.93535 0.446743 5.59522 0.49311C4.22742 0.540437 2.87434 1.08547 1.83129 2.12856C0.788112 3.17151 0.243018 4.52462 0.195739 5.89252C0.149424 7.23255 0.582478 8.58657 1.4944 9.67625C1.44669 9.94127 1.40938 10.2121 1.38311 10.4884C1.3535 10.7999 1.33824 11.1102 1.33824 11.4183C1.33824 14.1198 2.43333 16.5655 4.20366 18.3359C5.9741 20.1063 8.41997 21.2014 11.1213 21.2014C11.4295 21.2014 11.7399 21.1861 12.0516 21.1565C12.3279 21.1303 12.5988 21.093 12.8641 21.0453C13.9534 21.9571 15.3073 22.3901 16.6474 22.3438C18.0152 22.2965 19.3683 21.7515 20.4114 20.7084C21.4544 19.6654 21.9994 18.3122 22.0467 16.9443C22.093 15.6043 21.6601 14.2503 20.7483 13.1608C20.796 12.8956 20.8333 12.6248 20.8596 12.3485C20.8892 12.0369 20.9044 11.7265 20.9044 11.4183C20.9044 8.71696 19.8093 6.2713 18.039 4.50102L18.039 4.501Z" fill="#3B486A"/>
<path fill-rule="evenodd" clip-rule="evenodd" d="M15.8216 7.91482C15.8216 7.13132 15.2262 6.48999 14.3216 6.03975C13.3806 5.57139 12.0906 5.30371 10.8103 5.30371C8.53859 5.30371 5.88478 6.30928 5.88478 9.02944C5.88478 10.1556 6.26857 10.9238 6.89953 11.4734C7.51338 12.008 8.35458 12.3216 9.29802 12.5547H9.29892L11.14 13.0042L11.1399 13.0046L11.3039 13.0452C12.2115 13.2702 12.7637 13.4072 12.7637 13.9794C12.7637 14.223 12.6194 14.4424 12.3622 14.6028C12.0824 14.7773 11.6765 14.8824 11.1749 14.8824C9.9593 14.8824 9.38649 14.3 8.89042 13.7956C8.45059 13.3483 8.06265 12.9539 7.38144 12.9539C6.90363 12.9539 6.54565 13.1164 6.297 13.3736C6.01571 13.6646 5.88477 14.0706 5.88477 14.4939C5.88477 15.3559 6.51902 16.1279 7.53427 16.6774C8.50965 17.2054 9.84767 17.5335 11.3032 17.5335C12.6244 17.5335 13.9826 17.1729 14.9563 16.4201C15.8016 15.7665 16.3575 14.8239 16.3575 13.5726C16.3575 12.3887 15.7846 11.5947 14.9716 11.0421C14.1879 10.5095 13.1869 10.2117 12.2765 10.0034L10.9697 9.70324H10.9678C10.5036 9.59997 10.1019 9.50737 9.83015 9.36057C9.60967 9.24143 9.47857 9.07737 9.47857 8.81506C9.47857 8.58808 9.59997 8.41905 9.816 8.30333C10.0947 8.15405 10.5188 8.08334 11.0461 8.08334C12.0602 8.08334 12.5241 8.50093 12.9327 8.86879C13.3141 9.21216 13.655 9.51904 14.2818 9.51904L14.2819 9.51813C14.7603 9.51812 15.1461 9.32718 15.4132 9.02821C15.677 8.73299 15.8215 8.33485 15.8215 7.91481L15.8216 7.91482Z" fill="#FFFFFE"/>
</svg>
