<svg width="47" height="47" viewBox="0 0 47 47" fill="none" xmlns="http://www.w3.org/2000/svg">
<circle cx="23.7422" cy="23.6838" r="22.7471" fill="#16D7E3"/>
<path d="M21.1037 33.5182C21.0091 33.4986 20.9144 33.4789 20.8387 33.4593C20.5169 33.3807 20.2329 33.2236 20.0058 32.9684C18.1695 31.0635 16.3522 29.1783 14.5348 27.2735C13.8344 26.5469 13.8534 25.4472 14.5348 24.7206C14.7242 24.5242 14.9135 24.3279 15.1217 24.1119C15.8221 23.4049 16.8822 23.3853 17.5827 24.1119C18.7753 25.349 19.9679 26.5862 21.1605 27.8233C21.1794 27.843 21.2173 27.8823 21.2362 27.9215C21.2741 27.8823 21.312 27.843 21.3498 27.8233C24.7194 24.3082 28.108 20.7931 31.4776 17.278C31.8184 16.9246 32.197 16.6693 32.6892 16.63C32.7081 16.63 32.7081 16.63 32.7081 16.6104C32.7649 16.6104 32.8406 16.6104 32.8974 16.6104C32.9353 16.6104 32.9542 16.63 32.9921 16.63C33.3707 16.6693 33.6925 16.8264 33.9764 17.0817C34.2225 17.3173 34.4686 17.5726 34.6958 17.8279C34.9797 18.1421 35.1312 18.5348 35.1501 18.9865C35.1691 19.5167 34.9797 19.9684 34.6011 20.3415C31.8752 23.1496 29.1681 25.9774 26.461 28.7856C25.1359 30.1602 23.8108 31.5348 22.4856 32.9094C22.2395 33.1647 21.9556 33.3415 21.6148 33.42C21.5202 33.4397 21.4445 33.4593 21.3498 33.4789C21.2741 33.5182 21.1984 33.5182 21.1037 33.5182Z" fill="white"/>
</svg>
