<svg width="20" height="21" viewBox="0 0 20 21" fill="none" xmlns="http://www.w3.org/2000/svg">
<path d="M17.0618 3.40756C16.1449 2.48216 15.053 1.74849 13.8497 1.24932C12.6464 0.750144 11.3558 0.495445 10.053 0.500062C4.5943 0.500062 0.145547 4.94756 0.140547 10.4076C0.140547 12.1563 0.598047 13.8576 1.4618 15.3638L0.0605469 20.5001L5.31555 19.1226C6.7693 19.9137 8.39796 20.3284 10.053 20.3288H10.058C15.518 20.3288 19.9655 15.8813 19.9705 10.4163C19.9718 9.11387 19.7153 7.82405 19.2159 6.62116C18.7165 5.41827 17.9839 4.3261 17.0605 3.40756H17.0618ZM10.053 18.6513C8.57679 18.6518 7.12767 18.2546 5.85805 17.5013L5.55805 17.3213L2.44055 18.1388L3.27305 15.0976L3.07805 14.7838C2.25281 13.4717 1.81636 11.9526 1.8193 10.4026C1.8193 5.87006 5.51555 2.17256 10.058 2.17256C11.1402 2.17062 12.2121 2.3829 13.2118 2.79718C14.2116 3.21145 15.1194 3.81951 15.883 4.58631C16.6493 5.35012 17.2568 6.25809 17.6705 7.25785C18.0841 8.25761 18.2957 9.32937 18.293 10.4113C18.288 14.9601 14.5918 18.6513 10.053 18.6513ZM14.5718 12.4838C14.3255 12.3601 13.1093 11.7613 12.8805 11.6763C12.653 11.5951 12.4868 11.5526 12.3243 11.8001C12.158 12.0463 11.683 12.6076 11.5405 12.7688C11.398 12.9351 11.2505 12.9538 11.003 12.8313C10.7568 12.7063 9.95805 12.4463 9.01305 11.6001C8.27555 10.9438 7.7818 10.1313 7.6343 9.88506C7.4918 9.63756 7.62055 9.50506 7.7443 9.38131C7.85305 9.27131 7.99055 9.09131 8.1143 8.94881C8.2393 8.80631 8.28055 8.70131 8.3618 8.53631C8.44305 8.36881 8.4043 8.22631 8.34305 8.10256C8.28055 7.97881 7.7868 6.75756 7.57805 6.26506C7.37805 5.77881 7.1743 5.84631 7.0218 5.84006C6.8793 5.83131 6.71305 5.83131 6.5468 5.83131C6.42125 5.83443 6.29771 5.86347 6.18391 5.9166C6.07012 5.96973 5.96854 6.04581 5.88555 6.14006C5.65805 6.38756 5.0218 6.98631 5.0218 8.20756C5.0218 9.42881 5.9093 10.6026 6.0343 10.7688C6.1568 10.9351 7.7768 13.4338 10.263 14.5088C10.8505 14.7651 11.313 14.9163 11.6743 15.0313C12.268 15.2213 12.8043 15.1926 13.2318 15.1313C13.7068 15.0588 14.6955 14.5313 14.9043 13.9526C15.1093 13.3726 15.1093 12.8776 15.0468 12.7738C14.9855 12.6688 14.8193 12.6076 14.5718 12.4838Z" fill="#3B486A"/>
</svg>
