<svg width="9" height="16" viewBox="0 0 9 16" fill="none" xmlns="http://www.w3.org/2000/svg">
<path d="M8.09567 0.183655H5.90724C3.69007 0.183655 1.45293 1.82086 1.45293 5.47851C1.45293 7.37309 2.25594 8.84867 3.72785 9.68782L1.03373 14.5641C0.906037 14.7947 0.902716 15.056 1.02483 15.2632C1.14406 15.4655 1.362 15.5863 1.60782 15.5863H2.97052C3.28012 15.5863 3.52155 15.4367 3.63727 15.1745L6.16326 10.2339H6.34761V14.9706C6.34761 15.3044 6.62928 15.5863 6.96266 15.5863H8.15323C8.52709 15.5863 8.78816 15.3252 8.78816 14.9514V0.857618C8.78821 0.460807 8.50345 0.183655 8.09567 0.183655ZM6.34766 8.03921H6.02247C4.76152 8.03921 4.00871 7.00992 4.00871 5.28588C4.00871 3.14217 4.95968 2.37839 5.84967 2.37839H6.34766V8.03921Z" fill="#B0B5D1"/>
</svg>
