<svg width="11" height="9" viewBox="0 0 11 9" fill="none" xmlns="http://www.w3.org/2000/svg">
<path d="M3.48261 8.63613C3.44891 8.63907 3.41275 8.63421 3.37966 8.62714C3.35242 8.62133 3.32649 8.61551 3.30406 8.6097C3.1518 8.57253 3.01744 8.4982 2.90996 8.37741C2.04113 7.47613 1.18125 6.58415 0.321381 5.68287C-0.0100278 5.33908 -0.00107078 4.81876 0.321381 4.47497C0.410951 4.38206 0.500522 4.28914 0.599049 4.18693C0.930458 3.85244 1.43205 3.84315 1.76346 4.18693C2.32775 4.7723 2.89204 5.35767 3.45633 5.94303C3.47615 5.96359 3.51196 5.96595 3.53532 5.94953C3.53672 5.94854 3.53813 5.94761 3.53953 5.94672C3.54365 5.9441 3.54763 5.94124 3.551 5.93771C5.14367 4.2763 6.74525 2.61489 8.3379 0.953485C8.49913 0.786238 8.67827 0.665448 8.91115 0.646865C8.92023 0.646865 8.92747 0.637573 8.93655 0.637573C8.96048 0.637573 8.988 0.637573 9.00968 0.637573C9.02759 0.637573 9.03655 0.646865 9.05446 0.646865C9.2336 0.665448 9.38587 0.73978 9.52023 0.86057C9.63667 0.972068 9.75311 1.09286 9.86059 1.21365C9.99495 1.36231 10.0666 1.54814 10.0756 1.76185C10.0845 2.01272 9.99495 2.22642 9.81581 2.40296C8.526 3.73165 7.24515 5.06963 5.96429 6.39832C5.3373 7.04872 4.71031 7.69913 4.08332 8.34954C3.96688 8.47033 3.83253 8.55395 3.6713 8.59112C3.65038 8.59546 3.63142 8.59979 3.61259 8.60414C3.56841 8.61431 3.52777 8.63218 3.48261 8.63613Z" fill="#44B759"/>
</svg>
