<svg width="11" height="9" viewBox="0 0 11 9" fill="none" xmlns="http://www.w3.org/2000/svg">
<path d="M3.57204 8.4436C3.52726 8.43431 3.48247 8.42502 3.44664 8.41573C3.29437 8.37856 3.16002 8.30423 3.05253 8.18344C2.1837 7.28216 1.32383 6.39018 0.46396 5.4889C0.13255 5.14511 0.141507 4.62479 0.46396 4.281C0.55353 4.18809 0.6431 4.09517 0.741627 3.99296C1.07304 3.65847 1.57463 3.64918 1.90604 3.99296C2.47033 4.57833 3.03462 5.1637 3.59891 5.74906C3.60787 5.75835 3.62578 5.77694 3.63474 5.79552C3.65265 5.77694 3.67057 5.75835 3.68848 5.74906C5.28283 4.08588 6.88613 2.4227 8.48048 0.759515C8.64171 0.592268 8.82085 0.471478 9.05373 0.452895C9.06268 0.452895 9.06269 0.452895 9.06269 0.443604C9.08956 0.443604 9.12538 0.443604 9.15226 0.443604C9.17017 0.443604 9.17913 0.452895 9.19704 0.452895C9.37618 0.471478 9.52845 0.54581 9.6628 0.6666C9.77925 0.778098 9.89569 0.898888 10.0032 1.01968C10.1375 1.16834 10.2092 1.35417 10.2181 1.56788C10.2271 1.81875 10.1375 2.03245 9.95839 2.20899C8.66858 3.53768 7.38772 4.87566 6.10687 6.20435C5.47988 6.85475 4.85289 7.50516 4.2259 8.15557C4.10946 8.27636 3.97511 8.35998 3.81388 8.39715C3.76909 8.40644 3.73327 8.41573 3.68848 8.42502C3.65265 8.4436 3.61683 8.4436 3.57204 8.4436Z" fill="white"/>
</svg>
