<svg width="13" height="13" viewBox="0 0 13 13" fill="none" xmlns="http://www.w3.org/2000/svg">
<path d="M6.60258 12.386C4.9367 12.386 3.37179 11.7755 2.19306 10.6685C2.00123 10.4879 1.8195 10.2931 1.65291 10.0888C0.812398 9.06019 0.368164 7.82489 0.368164 6.51832C0.368164 5.21175 0.812398 3.97645 1.65543 2.94782C1.82202 2.74352 2.00375 2.54872 2.19558 2.36818C3.37179 1.26116 4.9367 0.650635 6.60258 0.650635C8.26845 0.650635 9.83337 1.26116 11.0121 2.36818L11.1181 2.46795L9.29827 4.18075L9.19226 4.08097C8.49814 3.43244 7.57939 3.07373 6.60258 3.07373C5.32036 3.07373 4.11638 3.71988 3.45761 4.75801C3.12191 5.29014 2.9427 5.89829 2.9427 6.51832C2.9427 7.13834 3.12191 7.74649 3.45761 8.27862C4.11638 9.31675 5.32036 9.96291 6.60258 9.96291C7.26388 9.96291 7.91004 9.79662 8.47543 9.48067C9.07615 9.14571 9.55824 8.65872 9.87123 8.07195L10.0378 7.76312H6.82974V5.34003H12.7133L12.736 5.45643C12.8042 5.80564 12.837 6.16198 12.837 6.52069C12.837 8.08858 12.1883 9.56144 11.0121 10.6708C10.8203 10.8514 10.6133 11.0224 10.3962 11.1792C9.30332 11.9679 7.99081 12.386 6.60258 12.386Z" fill="#B0B5D1"/>
</svg>
