<svg width="19" height="19" viewBox="0 0 19 19" fill="none" xmlns="http://www.w3.org/2000/svg">
<path d="M5.27662 7.45587L1.13379 7.45587L1.13379 17.1225H5.27662L5.27662 7.45587Z" stroke="#DBDDE3" stroke-width="2" stroke-linecap="round" stroke-linejoin="round"/>
<path d="M5.27637 17.1225H15.1225C15.4576 17.1258 15.7824 17.0071 16.0365 16.7886C16.2906 16.5701 16.4565 16.2667 16.5034 15.9349L17.4977 9.03017C17.5256 8.8333 17.5106 8.63273 17.4537 8.44218C17.3969 8.25163 17.2996 8.0756 17.1685 7.92613C17.0374 7.77665 16.8755 7.65725 16.694 7.57609C16.5125 7.49494 16.3156 7.45394 16.1168 7.4559H10.8001V3.31307C10.8001 2.94682 10.6546 2.59557 10.3957 2.3366C10.1367 2.07762 9.78544 1.93213 9.41919 1.93213L5.27637 7.4559" stroke="#DBDDE3" stroke-width="2" stroke-linecap="round" stroke-linejoin="round"/>
</svg>
