<svg width="128" height="18" viewBox="0 0 128 18" fill="none" xmlns="http://www.w3.org/2000/svg">
<path d="M19.4304 0.935059H14.1894L9.94152 6.17536H4.92123V0.935059H0.397461V17.8077H4.92123V10.6095H6.5211H8.17614H9.2795L14.5205 17.8077H19.9269L13.0309 8.76672L19.4304 0.935059Z" fill="white"/>
<path d="M48.9147 7.21191C48.9147 6.29053 48.7491 5.42675 48.363 4.67813C48.032 3.92952 47.5355 3.23849 46.9286 2.66263C46.3218 2.08677 45.5494 1.68367 44.6667 1.33816C43.8392 1.10782 42.9013 0.935059 41.8532 0.935059H28.999V7.26949V13.6615V17.7501H33.5228V13.6615H41.9083C42.9565 13.6615 43.8944 13.4888 44.7771 13.1432C45.6597 12.7977 46.3769 12.337 47.0389 11.7612C47.6458 11.1853 48.1423 10.4943 48.4733 9.6881C48.7491 8.99707 48.9147 8.13328 48.9147 7.21191ZM43.7289 9.11224C43.2875 9.63051 42.5703 9.86085 41.5221 9.86085H33.5228V4.73572H41.467C42.5152 4.73572 43.2875 4.96606 43.7289 5.42675C44.1702 5.88743 44.3909 6.52088 44.3909 7.21191C44.3909 7.96052 44.1702 8.59397 43.7289 9.11224Z" fill="white"/>
<path d="M119.081 0.935059H117.15H116.322L107.551 17.8077H112.406L119.081 4.50538H123.715V17.8077H127.797V4.50538V0.992644V0.935059H119.081Z" fill="white"/>
<path d="M100.161 7.78755C99.6091 7.26928 98.9471 6.92377 98.1196 6.63584C97.3472 6.34791 96.4645 6.23274 95.5267 6.23274H88.0238V4.85068H99.7746V0.992432H87.9687H83.9414V6.23274V11.9337V17.7499H95.5267C96.4645 17.7499 97.292 17.5771 98.1196 17.2892C98.8919 17.0013 99.6091 16.5406 100.161 16.0223C100.712 15.504 101.154 14.8706 101.485 14.1796C101.816 13.4885 101.981 12.6823 101.981 11.8761C101.981 11.0699 101.816 10.2637 101.485 9.57271C101.154 8.93927 100.712 8.30582 100.161 7.78755ZM97.2369 13.6037C96.8507 14.0644 96.1887 14.2947 95.1957 14.2947H87.9687V9.68788H95.1405C96.0784 9.68788 96.7955 9.91823 97.1817 10.3213C97.5679 10.7244 97.7886 11.3003 97.7886 11.9337C97.8437 12.5672 97.6231 13.143 97.2369 13.6037Z" fill="white"/>
<path d="M64.0838 0.935059H62.9805H61.3254L52.5537 17.8077H57.4085L58.7325 15.2739H62.9805H64.0838H70.042L71.366 17.8077H76.1656L67.6146 0.935059H64.0838ZM64.0838 11.9339H62.9805H60.3876L64.0838 4.44779V4.33262H64.6355L68.2766 11.9339H64.0838Z" fill="white"/>
</svg>
