<svg width="19" height="20" viewBox="0 0 19 20" fill="none" xmlns="http://www.w3.org/2000/svg">
<path d="M9.60966 0.983276C4.55435 0.983276 0.441406 5.09622 0.441406 10.1515C0.441406 15.2068 4.55435 19.3198 9.60966 19.3198C11.2218 19.3198 12.8071 18.8956 14.1949 18.0926L13.0478 16.1083C12.0081 16.7099 10.8189 17.0277 9.60966 17.0277C5.81792 17.0277 2.73346 13.9433 2.73346 10.1515C2.73346 6.35979 5.81792 3.27533 9.60966 3.27533C13.4014 3.27533 16.4859 6.35979 16.4859 10.1515V11.1498C16.4859 11.8997 16.0041 12.4436 15.3398 12.4436C14.708 12.4436 14.1938 11.9293 14.1938 11.2975V6.71343H12.6095C11.8033 6.00911 10.7617 5.56738 9.60966 5.56738C7.08201 5.56738 5.02551 7.62388 5.02551 10.1515C5.02551 12.6792 7.08201 14.7357 9.60966 14.7357C10.8133 14.7357 11.9016 14.2597 12.7204 13.4982C13.3516 14.2482 14.2851 14.7357 15.3398 14.7357C17.2676 14.7357 18.7779 13.1605 18.7779 11.1498V10.1515C18.7779 5.09622 14.665 0.983276 9.60966 0.983276V0.983276ZM9.60966 12.4436C8.34554 12.4436 7.31761 11.4156 7.31761 10.1515C7.31761 8.88741 8.34558 7.85948 9.60966 7.85948C10.8738 7.85948 11.9017 8.88745 11.9017 10.1515C11.9017 11.4157 10.8738 12.4436 9.60966 12.4436Z" fill="#B0B5D1"/>
</svg>
