<svg width="28" height="28" viewBox="0 0 28 28" fill="none" xmlns="http://www.w3.org/2000/svg">
<path fill-rule="evenodd" clip-rule="evenodd" d="M7.43343 16.2993C9.96087 18.8267 14.0587 18.8267 16.5861 16.2993C19.1135 13.7718 19.1135 9.67405 16.5861 7.14661C14.0587 4.61917 9.96087 4.61917 7.43343 7.14661C4.90599 9.67405 4.90599 13.7718 7.43343 16.2993ZM6.38474 17.348C9.49136 20.4546 14.5282 20.4546 17.6348 17.348C20.7414 14.2414 20.7414 9.20454 17.6348 6.09792C14.5282 2.99131 9.49136 2.99131 6.38474 6.09792C3.27812 9.20454 3.27812 14.2414 6.38474 17.348Z" fill="#A69FFB"/>
<path fill-rule="evenodd" clip-rule="evenodd" d="M21.6872 22.7343L16.8341 17.8812L17.8828 16.8325L22.7359 21.6856L21.6872 22.7343Z" fill="#A69FFB"/>
</svg>
