<svg width="50" height="49" viewBox="0 0 50 49" fill="none" xmlns="http://www.w3.org/2000/svg">
<path d="M29.6871 38.465C29.6322 38.4687 29.577 38.4687 29.5221 38.465C29.3323 38.4401 29.1508 38.3728 28.9917 38.2683C28.8326 38.1638 28.7002 38.0249 28.6046 37.8623L25.6721 32.8839L22.7496 32.4404C21.2721 32.234 19.9028 31.5632 18.8475 30.529C17.7922 29.4948 17.1078 28.1529 16.8971 26.705L16.4646 23.8385L11.3846 20.9671C11.2186 20.8734 11.0769 20.7436 10.9702 20.5877C10.8636 20.4318 10.795 20.254 10.7696 20.0679C10.7444 19.8816 10.7634 19.6921 10.8249 19.5141C10.8865 19.3361 10.989 19.1743 11.1246 19.0414L15.5446 14.7C15.7789 14.471 16.0962 14.3424 16.4271 14.3423H24.7496L30.9396 8.27364C31.7828 7.44459 32.8032 6.80912 33.9271 6.413C35.0511 6.01689 36.2507 5.86999 37.4396 5.98289L42.3046 6.43124C42.5944 6.45794 42.8656 6.58293 43.0715 6.78465C43.2773 6.98637 43.4048 7.25217 43.4321 7.53619L43.8896 12.3039C44.005 13.469 43.8552 14.6447 43.4509 15.7462C43.0467 16.8477 42.3982 17.8476 41.5521 18.6739L35.3546 24.745V32.901C35.3545 33.2253 35.2233 33.5363 34.9896 33.7659L30.5696 38.0975C30.4544 38.2127 30.3172 38.3044 30.1657 38.3675C30.0143 38.4305 29.8516 38.4637 29.6871 38.465ZM14.0446 19.6441L18.2496 22.0157C18.4129 22.1079 18.5529 22.2352 18.659 22.3879C18.765 22.5407 18.8345 22.7149 18.8621 22.8977L19.3821 26.3497C19.5162 27.2779 19.9545 28.1381 20.6309 28.8009C21.3072 29.4638 22.185 29.8933 23.1321 30.0247L26.6546 30.5343C26.8411 30.5614 27.0189 30.6295 27.1748 30.7334C27.3306 30.8374 27.4605 30.9745 27.5546 31.1346L29.9746 35.2432L32.8746 32.3988V24.2378C32.8753 23.9132 33.0075 23.6022 33.2421 23.373L39.7996 16.9466C40.3848 16.3743 40.8334 15.6819 41.1131 14.9194C41.3927 14.1569 41.4966 13.3432 41.4171 12.5366L41.0546 8.77834L37.1996 8.43044C36.3766 8.3529 35.5464 8.45482 34.7684 8.72888C33.9903 9.00294 33.2839 9.44235 32.6996 10.0156L26.1496 16.4419C25.9157 16.6718 25.5983 16.8014 25.2671 16.8021H16.9471L14.0446 19.6441Z" fill="#D1D9E0"/>
<path d="M7.32786 43.0441C7.08052 43.044 6.83876 42.9721 6.63317 42.8373C6.42758 42.7025 6.26741 42.511 6.17292 42.287C6.07844 42.063 6.05389 41.8166 6.10239 41.5789C6.15089 41.3412 6.27024 41.1229 6.44536 40.9518L15.2779 32.2959C15.3932 32.1789 15.5311 32.0856 15.6836 32.0214C15.8361 31.9572 16.0001 31.9234 16.1661 31.922C16.3321 31.9206 16.4967 31.9516 16.6503 32.0132C16.8039 32.0748 16.9435 32.1657 17.0609 32.2807C17.1782 32.3957 17.271 32.5325 17.3339 32.6831C17.3967 32.8336 17.4284 32.9949 17.4269 33.1576C17.4255 33.3202 17.391 33.481 17.3255 33.6304C17.26 33.7799 17.1648 33.9151 17.0454 34.0281L8.21286 42.6839C8.09677 42.798 7.95884 42.8886 7.80698 42.9504C7.65511 43.0122 7.4923 43.044 7.32786 43.0441Z" fill="#D1D9E0"/>
<path d="M7.22727 33.1068C6.98024 33.1068 6.73875 33.035 6.53332 32.9006C6.32788 32.7661 6.16771 32.575 6.07301 32.3514C5.97832 32.1278 5.95336 31.8817 6.00129 31.6442C6.04921 31.4067 6.16787 31.1885 6.34228 31.017L11.6148 25.8475C11.8492 25.6175 12.1672 25.4881 12.4989 25.4879C12.8306 25.4877 13.1488 25.6166 13.3835 25.8463C13.6182 26.076 13.7502 26.3876 13.7505 26.7127C13.7507 27.0378 13.6192 27.3496 13.3848 27.5796L8.10977 32.7491C7.87551 32.9781 7.55816 33.1068 7.22727 33.1068Z" fill="#D1D9E0"/>
<path d="M17.365 43.0441C17.1176 43.044 16.8759 42.9721 16.6703 42.8373C16.4647 42.7025 16.3045 42.511 16.21 42.287C16.1155 42.063 16.091 41.8166 16.1395 41.5789C16.188 41.3412 16.3074 41.1229 16.4825 40.9518L21.75 35.7847C21.8653 35.6677 22.0032 35.5744 22.1557 35.5102C22.3082 35.446 22.4722 35.4122 22.6382 35.4108C22.8042 35.4094 22.9688 35.4404 23.1224 35.502C23.276 35.5636 23.4156 35.6545 23.533 35.7695C23.6503 35.8845 23.7431 36.0213 23.806 36.1719C23.8689 36.3224 23.9005 36.4837 23.899 36.6464C23.8976 36.809 23.8631 36.9698 23.7976 37.1192C23.7321 37.2687 23.6369 37.4039 23.5175 37.5169L18.25 42.6839C18.1339 42.798 17.9959 42.8886 17.8441 42.9504C17.6922 43.0122 17.5294 43.044 17.365 43.0441Z" fill="#D1D9E0"/>
<path d="M35.25 17.885C34.5578 17.885 33.8811 17.6838 33.3055 17.3069C32.7299 16.93 32.2813 16.3944 32.0164 15.7676C31.7515 15.1408 31.6822 14.4512 31.8173 13.7858C31.9523 13.1205 32.2856 12.5093 32.7751 12.0296C33.2646 11.5499 33.8883 11.2232 34.5672 11.0909C35.2461 10.9586 35.9499 11.0265 36.5894 11.2861C37.2289 11.5457 37.7756 11.9853 38.1602 12.5494C38.5447 13.1135 38.75 13.7766 38.75 14.455C38.75 15.3647 38.3813 16.2371 37.7249 16.8804C37.0685 17.5236 36.1783 17.885 35.25 17.885ZM35.25 13.475C35.0522 13.475 34.8589 13.5325 34.6944 13.6402C34.53 13.7478 34.4018 13.9009 34.3261 14.08C34.2504 14.259 34.2306 14.4561 34.2692 14.6462C34.3078 14.8363 34.403 15.0109 34.5429 15.148C34.6827 15.285 34.8609 15.3784 35.0549 15.4162C35.2489 15.454 35.45 15.4346 35.6327 15.3604C35.8154 15.2862 35.9716 15.1606 36.0815 14.9995C36.1914 14.8383 36.25 14.6488 36.25 14.455C36.25 14.1951 36.1446 13.9458 35.9571 13.762C35.7696 13.5782 35.5152 13.475 35.25 13.475Z" fill="#D1D9E0"/>
</svg>
