<svg width="30" height="31" viewBox="0 0 30 31" fill="none" xmlns="http://www.w3.org/2000/svg">
<path d="M15.0003 0.916687C6.95033 0.916687 0.416992 7.45002 0.416992 15.5C0.416992 23.55 6.95033 30.0834 15.0003 30.0834C23.0503 30.0834 29.5837 23.55 29.5837 15.5C29.5837 7.45002 23.0503 0.916687 15.0003 0.916687ZM7.81074 24.6584C8.43783 23.3459 12.2587 22.0625 15.0003 22.0625C17.742 22.0625 21.5774 23.3459 22.1899 24.6584C20.2066 26.2334 17.7128 27.1667 15.0003 27.1667C12.2878 27.1667 9.79408 26.2334 7.81074 24.6584ZM24.2753 22.5438C22.1899 20.0063 17.1295 19.1459 15.0003 19.1459C12.8712 19.1459 7.81074 20.0063 5.72533 22.5438C4.23783 20.5896 3.33366 18.1542 3.33366 15.5C3.33366 9.06877 8.56908 3.83335 15.0003 3.83335C21.4316 3.83335 26.667 9.06877 26.667 15.5C26.667 18.1542 25.7628 20.5896 24.2753 22.5438ZM15.0003 6.75002C12.1712 6.75002 9.89616 9.02502 9.89616 11.8542C9.89616 14.6834 12.1712 16.9584 15.0003 16.9584C17.8295 16.9584 20.1045 14.6834 20.1045 11.8542C20.1045 9.02502 17.8295 6.75002 15.0003 6.75002ZM15.0003 14.0417C13.7899 14.0417 12.8128 13.0646 12.8128 11.8542C12.8128 10.6438 13.7899 9.66669 15.0003 9.66669C16.2107 9.66669 17.1878 10.6438 17.1878 11.8542C17.1878 13.0646 16.2107 14.0417 15.0003 14.0417Z" fill="#D1D9E0"/>
</svg>
