<svg width="35" height="26" viewBox="0 0 35 26" fill="none" xmlns="http://www.w3.org/2000/svg">
<path d="M1.07833 11.673L7.245 5.50633C7.38721 5.35908 7.55733 5.24163 7.74542 5.16084C7.93351 5.08004 8.1358 5.03751 8.34051 5.03573C8.54521 5.03395 8.74821 5.07296 8.93768 5.15048C9.12714 5.22799 9.29927 5.34247 9.44402 5.48722C9.58878 5.63197 9.70325 5.8041 9.78077 5.99356C9.85828 6.18303 9.89729 6.38603 9.89551 6.59074C9.89373 6.79544 9.8512 6.99773 9.7704 7.18582C9.68961 7.37391 9.57216 7.54403 9.42492 7.68624L4.34821 12.763L9.42492 17.8397C9.57216 17.9819 9.68961 18.152 9.7704 18.3401C9.8512 18.5282 9.89373 18.7305 9.89551 18.9352C9.89729 19.1399 9.85828 19.3429 9.78077 19.5323C9.70325 19.7218 9.58878 19.8939 9.44402 20.0387C9.29927 20.1834 9.12714 20.2979 8.93768 20.3754C8.74821 20.4529 8.54521 20.492 8.34051 20.4902C8.1358 20.4884 7.93351 20.4459 7.74542 20.3651C7.55733 20.2843 7.38721 20.1668 7.245 20.0196L1.07833 13.8529C0.789314 13.5638 0.626953 13.1717 0.626953 12.763C0.626953 12.3542 0.789314 11.9621 1.07833 11.673ZM27.9249 5.50633C27.7827 5.35908 27.6126 5.24163 27.4245 5.16084C27.2364 5.08004 27.0341 5.03751 26.8294 5.03573C26.6247 5.03395 26.4217 5.07296 26.2322 5.15048C26.0428 5.22799 25.8706 5.34247 25.7259 5.48722C25.5811 5.63197 25.4667 5.8041 25.3891 5.99356C25.3116 6.18303 25.2726 6.38603 25.2744 6.59074C25.2762 6.79544 25.3187 6.99773 25.3995 7.18582C25.4803 7.37391 25.5978 7.54403 25.745 7.68624L30.8217 12.763L25.745 17.8397C25.5978 17.9819 25.4803 18.152 25.3995 18.3401C25.3187 18.5282 25.2762 18.7305 25.2744 18.9352C25.2726 19.1399 25.3116 19.3429 25.3891 19.5323C25.4667 19.7218 25.5811 19.8939 25.7259 20.0387C25.8706 20.1834 26.0428 20.2979 26.2322 20.3754C26.4217 20.4529 26.6247 20.492 26.8294 20.4902C27.0341 20.4884 27.2364 20.4459 27.4245 20.3651C27.6126 20.2843 27.7827 20.1668 27.9249 20.0196L34.0916 13.8529C34.3806 13.5638 34.543 13.1717 34.543 12.763C34.543 12.3542 34.3806 11.9621 34.0916 11.673L27.9249 5.50633ZM19.1867 1.54887L13.0201 23.1322C12.9078 23.5251 12.9562 23.9465 13.1545 24.3039C13.3528 24.6612 13.6848 24.9251 14.0777 25.0377C14.2158 25.0759 14.3583 25.0956 14.5016 25.0963C14.8366 25.096 15.1625 24.9867 15.4298 24.7847C15.6971 24.5828 15.8914 24.2992 15.9832 23.977L22.1498 2.3937C22.2141 2.1966 22.238 1.98856 22.22 1.78203C22.202 1.57549 22.1425 1.37471 22.0452 1.19168C21.9478 1.00865 21.8145 0.847143 21.6533 0.716814C21.4921 0.586485 21.3062 0.490014 21.1068 0.433169C20.9075 0.376325 20.6987 0.360276 20.493 0.385982C20.2872 0.411688 20.0888 0.478622 19.9096 0.582779C19.7303 0.686936 19.5739 0.826176 19.4497 0.992171C19.3255 1.15817 19.2361 1.34751 19.1867 1.54887Z" fill="#D1D9E0"/>
</svg>
