<svg width="17" height="17" viewBox="0 0 17 17" fill="none" xmlns="http://www.w3.org/2000/svg">
<g clip-path="url(#clip0_808_421)">
<path d="M13.6054 12.1899C12.9954 12.1899 12.4494 12.4292 12.0334 12.8065L6.30467 9.47455C6.34602 9.28988 6.37801 9.10388 6.37801 8.91187C6.37801 8.71987 6.34535 8.53454 6.30467 8.3492L11.9687 5.04852C12.4007 5.44853 12.972 5.69851 13.6054 5.69851C14.9407 5.69851 16.0167 4.62451 16.0167 3.28918C16.0167 1.95654 14.94 0.879883 13.6054 0.879883C12.2727 0.879883 11.196 1.95654 11.196 3.28854C11.196 3.4832 11.2287 3.66588 11.2694 3.85121L5.60533 7.15455C5.17266 6.75256 4.60201 6.50322 3.96798 6.50322C2.63266 6.50322 1.55664 7.57923 1.55664 8.91187C1.55664 10.2445 2.63266 11.3212 3.96798 11.3212C4.60131 11.3212 5.17266 11.0712 5.60466 10.6712L11.3233 14.0106C11.284 14.1806 11.2593 14.3579 11.2593 14.5346C11.2593 15.8279 12.3133 16.8799 13.6047 16.8799C14.8973 16.8799 15.952 15.8286 15.952 14.5346C15.952 13.2406 14.898 12.1899 13.6054 12.1899Z" fill="white"/>
</g>
<defs>
<clipPath id="clip0_808_421">
<rect width="16" height="16" fill="white" transform="translate(0.786621 0.879883)"/>
</clipPath>
</defs>
</svg>
