<svg width="19" height="19" viewBox="0 0 19 19" fill="none" xmlns="http://www.w3.org/2000/svg">
<path d="M9.73503 0.661377C4.67503 0.661377 0.568359 4.76804 0.568359 9.82804C0.568359 14.888 4.67503 18.9947 9.73503 18.9947C14.795 18.9947 18.9017 14.888 18.9017 9.82804C18.9017 4.76804 14.795 0.661377 9.73503 0.661377ZM5.21586 15.5847C5.61003 14.7597 8.01169 13.953 9.73503 13.953C11.4584 13.953 13.8692 14.7597 14.2542 15.5847C13.0075 16.5747 11.44 17.1614 9.73503 17.1614C8.03003 17.1614 6.46253 16.5747 5.21586 15.5847ZM15.565 14.2555C14.2542 12.6605 11.0734 12.1197 9.73503 12.1197C8.39669 12.1197 5.21586 12.6605 3.90503 14.2555C2.97003 13.0272 2.40169 11.4964 2.40169 9.82804C2.40169 5.78554 5.69253 2.49471 9.73503 2.49471C13.7775 2.49471 17.0684 5.78554 17.0684 9.82804C17.0684 11.4964 16.5 13.0272 15.565 14.2555ZM9.73503 4.32804C7.95669 4.32804 6.52669 5.75804 6.52669 7.53638C6.52669 9.31471 7.95669 10.7447 9.73503 10.7447C11.5134 10.7447 12.9434 9.31471 12.9434 7.53638C12.9434 5.75804 11.5134 4.32804 9.73503 4.32804ZM9.73503 8.91138C8.97419 8.91138 8.36003 8.29721 8.36003 7.53638C8.36003 6.77554 8.97419 6.16138 9.73503 6.16138C10.4959 6.16138 11.11 6.77554 11.11 7.53638C11.11 8.29721 10.4959 8.91138 9.73503 8.91138Z" fill="#A69FFB"/>
</svg>
