<svg width="19" height="19" viewBox="0 0 19 19" fill="none" xmlns="http://www.w3.org/2000/svg">
<path d="M9.73503 0.515869C4.67503 0.515869 0.568359 4.62254 0.568359 9.68254C0.568359 14.7425 4.67503 18.8492 9.73503 18.8492C14.795 18.8492 18.9017 14.7425 18.9017 9.68254C18.9017 4.62254 14.795 0.515869 9.73503 0.515869ZM5.21586 15.4392C5.61003 14.6142 8.01169 13.8075 9.73503 13.8075C11.4584 13.8075 13.8692 14.6142 14.2542 15.4392C13.0075 16.4292 11.44 17.0159 9.73503 17.0159C8.03003 17.0159 6.46253 16.4292 5.21586 15.4392ZM15.565 14.11C14.2542 12.515 11.0734 11.9742 9.73503 11.9742C8.39669 11.9742 5.21586 12.515 3.90503 14.11C2.97003 12.8817 2.40169 11.3509 2.40169 9.68254C2.40169 5.64004 5.69253 2.3492 9.73503 2.3492C13.7775 2.3492 17.0684 5.64004 17.0684 9.68254C17.0684 11.3509 16.5 12.8817 15.565 14.11ZM9.73503 4.18254C7.95669 4.18254 6.52669 5.61254 6.52669 7.39087C6.52669 9.1692 7.95669 10.5992 9.73503 10.5992C11.5134 10.5992 12.9434 9.1692 12.9434 7.39087C12.9434 5.61254 11.5134 4.18254 9.73503 4.18254ZM9.73503 8.76587C8.97419 8.76587 8.36003 8.1517 8.36003 7.39087C8.36003 6.63004 8.97419 6.01587 9.73503 6.01587C10.4959 6.01587 11.11 6.63004 11.11 7.39087C11.11 8.1517 10.4959 8.76587 9.73503 8.76587Z" fill="#4D74F5"/>
</svg>
