<svg width="24" height="14" viewBox="0 0 24 14" fill="none" xmlns="http://www.w3.org/2000/svg">
<path d="M19.4043 7.52731C19.0423 7.07616 19.1459 6.87544 19.4043 6.47217C19.409 6.46756 22.397 2.39244 22.7048 1.01043L22.7067 1.00951C22.8597 0.505873 22.7067 0.135742 21.9669 0.135742H19.519C18.8959 0.135742 18.6086 0.453392 18.4546 0.808791C18.4546 0.808791 17.2083 3.75327 15.4452 5.66193C14.8761 6.21344 14.6131 6.39022 14.3024 6.39022C14.1494 6.39022 13.9116 6.21344 13.9116 5.70981V1.00951C13.9116 0.405514 13.7371 0.135742 13.2212 0.135742H9.3722C8.98133 0.135742 8.74905 0.417484 8.74905 0.67989C8.74905 1.25258 9.63061 1.38424 9.72203 2.99551V6.4915C9.72203 7.25754 9.58117 7.39841 9.26866 7.39841C8.43653 7.39841 6.41687 4.44197 5.22 1.05831C4.97838 0.401831 4.74237 0.136663 4.11454 0.136663H1.66576C0.967035 0.136663 0.826172 0.454313 0.826172 0.809712C0.826172 1.43765 1.65829 4.55982 4.69572 8.68466C6.72005 11.5002 9.57091 13.0259 12.1643 13.0259C13.7231 13.0259 13.9134 12.6871 13.9134 12.1042C13.9134 9.41388 13.7726 9.15976 14.5534 9.15976C14.9153 9.15976 15.5385 9.33654 16.9938 10.6946C18.6571 12.305 18.9304 13.0259 19.8614 13.0259H22.3093C23.007 13.0259 23.3606 12.6871 23.1572 12.0186C22.6917 10.6127 19.5461 7.72067 19.4043 7.52731Z" fill="#3B486A"/>
</svg>
